<mxfile host="app.diagrams.net" modified="2023-07-15T19:48:08.766Z" agent="Mozilla/5.0 (Windows NT 10.0; Win64; x64) AppleWebKit/537.36 (KHTML, like Gecko) Chrome/114.0.0.0 Safari/537.36" etag="XoVeXDlOSU7tyVIk4p63" version="21.6.2" type="github">
  <diagram name="Page-1" id="gygmYfpJUvNPn72T8sBX">
    <mxGraphModel dx="1259" dy="708" grid="1" gridSize="10" guides="1" tooltips="1" connect="1" arrows="1" fold="1" page="1" pageScale="1" pageWidth="850" pageHeight="1100" math="0" shadow="0">
      <root>
        <mxCell id="0" />
        <mxCell id="1" parent="0" />
        <mxCell id="AJYL74WCXrSji0Hc39n0-1" value="PortfolioAnalyzer" style="swimlane;whiteSpace=wrap;html=1;startSize=23;" vertex="1" parent="1">
          <mxGeometry x="450" y="275" width="300" height="375" as="geometry" />
        </mxCell>
        <mxCell id="AJYL74WCXrSji0Hc39n0-4" value="&#xa;&#xa;&#xa;&#xa;&#xa;&#xa;&#xa;&#xa;&#xa;&#xa;controller.py" style="swimlane;startSize=0;" vertex="1" parent="AJYL74WCXrSji0Hc39n0-1">
          <mxGeometry x="40" y="50" width="220" height="140" as="geometry" />
        </mxCell>
        <mxCell id="AJYL74WCXrSji0Hc39n0-5" value="&#xa;&#xa;&#xa;&#xa;&#xa;&#xa;&#xa;&#xa;&#xa;&#xa;analyzer.py" style="swimlane;startSize=0;" vertex="1" parent="AJYL74WCXrSji0Hc39n0-1">
          <mxGeometry x="150" y="220" width="110" height="130" as="geometry" />
        </mxCell>
        <mxCell id="AJYL74WCXrSji0Hc39n0-7" value="&#xa;&#xa;&#xa;&#xa;&#xa;&#xa;&#xa;&#xa;&#xa;&#xa;portfolio_&#xa;calculator.py" style="swimlane;startSize=0;" vertex="1" parent="AJYL74WCXrSji0Hc39n0-1">
          <mxGeometry x="40" y="220" width="110" height="130" as="geometry" />
        </mxCell>
        <mxCell id="AJYL74WCXrSji0Hc39n0-8" value="" style="endArrow=classic;startArrow=classic;html=1;rounded=0;entryX=0.25;entryY=1;entryDx=0;entryDy=0;exitX=0.5;exitY=0;exitDx=0;exitDy=0;" edge="1" parent="AJYL74WCXrSji0Hc39n0-1" source="AJYL74WCXrSji0Hc39n0-7" target="AJYL74WCXrSji0Hc39n0-4">
          <mxGeometry width="50" height="50" relative="1" as="geometry">
            <mxPoint x="95" y="270" as="sourcePoint" />
            <mxPoint x="115" y="230" as="targetPoint" />
          </mxGeometry>
        </mxCell>
        <mxCell id="AJYL74WCXrSji0Hc39n0-135" value="" style="endArrow=classic;startArrow=classic;html=1;rounded=0;exitX=0.75;exitY=1;exitDx=0;exitDy=0;entryX=0.5;entryY=0;entryDx=0;entryDy=0;" edge="1" parent="AJYL74WCXrSji0Hc39n0-1" source="AJYL74WCXrSji0Hc39n0-4" target="AJYL74WCXrSji0Hc39n0-5">
          <mxGeometry width="50" height="50" relative="1" as="geometry">
            <mxPoint x="130" y="195" as="sourcePoint" />
            <mxPoint x="180" y="145" as="targetPoint" />
          </mxGeometry>
        </mxCell>
        <mxCell id="AJYL74WCXrSji0Hc39n0-18" value="" style="endArrow=classic;html=1;rounded=0;exitX=1;exitY=0.5;exitDx=0;exitDy=0;entryX=0;entryY=0.5;entryDx=0;entryDy=0;" edge="1" parent="1" source="AJYL74WCXrSji0Hc39n0-114" target="AJYL74WCXrSji0Hc39n0-4">
          <mxGeometry width="50" height="50" relative="1" as="geometry">
            <mxPoint x="340" y="395" as="sourcePoint" />
            <mxPoint x="610" y="440" as="targetPoint" />
          </mxGeometry>
        </mxCell>
        <mxCell id="AJYL74WCXrSji0Hc39n0-42" value="User&lt;br&gt;" style="shape=umlActor;verticalLabelPosition=bottom;verticalAlign=top;html=1;outlineConnect=0;" vertex="1" parent="1">
          <mxGeometry x="865" y="520" width="30" height="60" as="geometry" />
        </mxCell>
        <mxCell id="AJYL74WCXrSji0Hc39n0-44" value="" style="endArrow=classic;html=1;rounded=0;exitX=0.5;exitY=1;exitDx=0;exitDy=0;" edge="1" parent="1" source="AJYL74WCXrSji0Hc39n0-2" target="AJYL74WCXrSji0Hc39n0-42">
          <mxGeometry width="50" height="50" relative="1" as="geometry">
            <mxPoint x="580" y="530" as="sourcePoint" />
            <mxPoint x="990" y="440" as="targetPoint" />
          </mxGeometry>
        </mxCell>
        <mxCell id="AJYL74WCXrSji0Hc39n0-112" value="Accessor" style="swimlane;whiteSpace=wrap;html=1;" vertex="1" parent="1">
          <mxGeometry x="180" y="275" width="240" height="500" as="geometry" />
        </mxCell>
        <mxCell id="AJYL74WCXrSji0Hc39n0-113" value="&#xa;&#xa;&#xa;&#xa;&#xa;&#xa;&#xa;&#xa;&#xa;&#xa;web_scraper.py" style="swimlane;startSize=0;" vertex="1" parent="AJYL74WCXrSji0Hc39n0-112">
          <mxGeometry x="30" y="345" width="180" height="140" as="geometry" />
        </mxCell>
        <mxCell id="AJYL74WCXrSji0Hc39n0-114" value="&#xa;&#xa;&#xa;&#xa;&#xa;&#xa;&#xa;&#xa;&#xa;&#xa;data_loader.py" style="swimlane;startSize=0;" vertex="1" parent="AJYL74WCXrSji0Hc39n0-112">
          <mxGeometry x="30" y="50" width="180" height="140" as="geometry" />
        </mxCell>
        <mxCell id="AJYL74WCXrSji0Hc39n0-115" value="prices.db" style="shape=cylinder3;whiteSpace=wrap;html=1;boundedLbl=1;backgroundOutline=1;size=15;" vertex="1" parent="AJYL74WCXrSji0Hc39n0-112">
          <mxGeometry x="45" y="226.87" width="60" height="66.25" as="geometry" />
        </mxCell>
        <mxCell id="AJYL74WCXrSji0Hc39n0-116" value="Data in &lt;br&gt;db?" style="rhombus;whiteSpace=wrap;html=1;" vertex="1" parent="AJYL74WCXrSji0Hc39n0-112">
          <mxGeometry x="125" y="220" width="80" height="80" as="geometry" />
        </mxCell>
        <mxCell id="AJYL74WCXrSji0Hc39n0-117" value="" style="endArrow=classic;html=1;rounded=0;entryX=0.5;entryY=0;entryDx=0;entryDy=0;entryPerimeter=0;exitX=0.25;exitY=1;exitDx=0;exitDy=0;" edge="1" parent="AJYL74WCXrSji0Hc39n0-112" source="AJYL74WCXrSji0Hc39n0-114" target="AJYL74WCXrSji0Hc39n0-115">
          <mxGeometry width="50" height="50" relative="1" as="geometry">
            <mxPoint x="60" y="200" as="sourcePoint" />
            <mxPoint x="430" y="110" as="targetPoint" />
          </mxGeometry>
        </mxCell>
        <mxCell id="AJYL74WCXrSji0Hc39n0-118" value="" style="endArrow=classic;html=1;rounded=0;exitX=1;exitY=0.5;exitDx=0;exitDy=0;exitPerimeter=0;entryX=0;entryY=0.5;entryDx=0;entryDy=0;" edge="1" parent="AJYL74WCXrSji0Hc39n0-112" source="AJYL74WCXrSji0Hc39n0-115" target="AJYL74WCXrSji0Hc39n0-116">
          <mxGeometry width="50" height="50" relative="1" as="geometry">
            <mxPoint x="380" y="360" as="sourcePoint" />
            <mxPoint x="430" y="310" as="targetPoint" />
          </mxGeometry>
        </mxCell>
        <mxCell id="AJYL74WCXrSji0Hc39n0-119" value="" style="endArrow=classic;html=1;rounded=0;exitX=0.5;exitY=0;exitDx=0;exitDy=0;entryX=0.75;entryY=1;entryDx=0;entryDy=0;" edge="1" parent="AJYL74WCXrSji0Hc39n0-112" source="AJYL74WCXrSji0Hc39n0-116" target="AJYL74WCXrSji0Hc39n0-114">
          <mxGeometry width="50" height="50" relative="1" as="geometry">
            <mxPoint x="380" y="360" as="sourcePoint" />
            <mxPoint x="430" y="310" as="targetPoint" />
          </mxGeometry>
        </mxCell>
        <mxCell id="AJYL74WCXrSji0Hc39n0-120" value="Yes" style="edgeLabel;html=1;align=center;verticalAlign=middle;resizable=0;points=[];" vertex="1" connectable="0" parent="AJYL74WCXrSji0Hc39n0-119">
          <mxGeometry x="-0.0381" y="-2" relative="1" as="geometry">
            <mxPoint as="offset" />
          </mxGeometry>
        </mxCell>
        <mxCell id="AJYL74WCXrSji0Hc39n0-121" value="" style="endArrow=classic;html=1;rounded=0;exitX=0.5;exitY=1;exitDx=0;exitDy=0;entryX=0.75;entryY=0;entryDx=0;entryDy=0;" edge="1" parent="AJYL74WCXrSji0Hc39n0-112" source="AJYL74WCXrSji0Hc39n0-116" target="AJYL74WCXrSji0Hc39n0-113">
          <mxGeometry width="50" height="50" relative="1" as="geometry">
            <mxPoint x="375" y="360" as="sourcePoint" />
            <mxPoint x="425" y="310" as="targetPoint" />
          </mxGeometry>
        </mxCell>
        <mxCell id="AJYL74WCXrSji0Hc39n0-122" value="No" style="edgeLabel;html=1;align=center;verticalAlign=middle;resizable=0;points=[];" vertex="1" connectable="0" parent="AJYL74WCXrSji0Hc39n0-121">
          <mxGeometry x="-0.1333" y="1" relative="1" as="geometry">
            <mxPoint as="offset" />
          </mxGeometry>
        </mxCell>
        <mxCell id="AJYL74WCXrSji0Hc39n0-123" value="" style="endArrow=classic;html=1;rounded=0;entryX=0.5;entryY=1;entryDx=0;entryDy=0;entryPerimeter=0;exitX=0.25;exitY=0;exitDx=0;exitDy=0;" edge="1" parent="AJYL74WCXrSji0Hc39n0-112" source="AJYL74WCXrSji0Hc39n0-113" target="AJYL74WCXrSji0Hc39n0-115">
          <mxGeometry width="50" height="50" relative="1" as="geometry">
            <mxPoint x="375" y="360" as="sourcePoint" />
            <mxPoint x="425" y="310" as="targetPoint" />
          </mxGeometry>
        </mxCell>
        <mxCell id="AJYL74WCXrSji0Hc39n0-131" value="Write Back" style="edgeLabel;html=1;align=center;verticalAlign=middle;resizable=0;points=[];" vertex="1" connectable="0" parent="AJYL74WCXrSji0Hc39n0-123">
          <mxGeometry x="0.0023" y="-2" relative="1" as="geometry">
            <mxPoint as="offset" />
          </mxGeometry>
        </mxCell>
        <mxCell id="AJYL74WCXrSji0Hc39n0-124" value="User&lt;br&gt;" style="shape=umlActor;verticalLabelPosition=bottom;verticalAlign=top;html=1;outlineConnect=0;" vertex="1" parent="1">
          <mxGeometry x="65" y="200" width="30" height="60" as="geometry" />
        </mxCell>
        <mxCell id="AJYL74WCXrSji0Hc39n0-125" value="trades.csv" style="rounded=1;whiteSpace=wrap;html=1;" vertex="1" parent="1">
          <mxGeometry x="20" y="357.5" width="120" height="75" as="geometry" />
        </mxCell>
        <mxCell id="AJYL74WCXrSji0Hc39n0-126" value="" style="endArrow=classic;html=1;rounded=0;" edge="1" parent="1" target="AJYL74WCXrSji0Hc39n0-125">
          <mxGeometry width="50" height="50" relative="1" as="geometry">
            <mxPoint x="80" y="280" as="sourcePoint" />
            <mxPoint x="180" y="160" as="targetPoint" />
          </mxGeometry>
        </mxCell>
        <mxCell id="AJYL74WCXrSji0Hc39n0-136" value="Uploads" style="edgeLabel;html=1;align=center;verticalAlign=middle;resizable=0;points=[];fontSize=14;" vertex="1" connectable="0" parent="AJYL74WCXrSji0Hc39n0-126">
          <mxGeometry x="-0.1273" relative="1" as="geometry">
            <mxPoint x="2" as="offset" />
          </mxGeometry>
        </mxCell>
        <mxCell id="AJYL74WCXrSji0Hc39n0-128" value="" style="endArrow=classic;html=1;rounded=0;exitX=1;exitY=0.5;exitDx=0;exitDy=0;entryX=0;entryY=0.5;entryDx=0;entryDy=0;" edge="1" parent="1" source="AJYL74WCXrSji0Hc39n0-125" target="AJYL74WCXrSji0Hc39n0-114">
          <mxGeometry width="50" height="50" relative="1" as="geometry">
            <mxPoint x="210" y="470" as="sourcePoint" />
            <mxPoint x="210" y="400" as="targetPoint" />
          </mxGeometry>
        </mxCell>
        <mxCell id="AJYL74WCXrSji0Hc39n0-129" value="" style="endArrow=classic;startArrow=classic;html=1;rounded=0;exitX=0;exitY=0.5;exitDx=0;exitDy=0;entryX=0.875;entryY=0.5;entryDx=0;entryDy=0;entryPerimeter=0;" edge="1" parent="1" source="AJYL74WCXrSji0Hc39n0-113" target="AJYL74WCXrSji0Hc39n0-130">
          <mxGeometry width="50" height="50" relative="1" as="geometry">
            <mxPoint x="580" y="490" as="sourcePoint" />
            <mxPoint x="140" y="690" as="targetPoint" />
          </mxGeometry>
        </mxCell>
        <mxCell id="AJYL74WCXrSji0Hc39n0-130" value="Exchange API" style="ellipse;shape=cloud;whiteSpace=wrap;html=1;" vertex="1" parent="1">
          <mxGeometry x="20" y="650" width="120" height="80" as="geometry" />
        </mxCell>
        <mxCell id="AJYL74WCXrSji0Hc39n0-132" value="&amp;nbsp;Dashboard" style="swimlane;whiteSpace=wrap;html=1;" vertex="1" parent="1">
          <mxGeometry x="780" y="275" width="200" height="215" as="geometry" />
        </mxCell>
        <mxCell id="AJYL74WCXrSji0Hc39n0-2" value="&#xa;&#xa;&#xa;&#xa;&#xa;&#xa;&#xa;&#xa;&#xa;&#xa;interface.py" style="swimlane;startSize=0;" vertex="1" parent="AJYL74WCXrSji0Hc39n0-132">
          <mxGeometry x="25" y="50" width="150" height="140" as="geometry" />
        </mxCell>
        <mxCell id="AJYL74WCXrSji0Hc39n0-133" value="" style="endArrow=classic;html=1;rounded=0;exitX=1;exitY=0.5;exitDx=0;exitDy=0;" edge="1" parent="1" source="AJYL74WCXrSji0Hc39n0-4" target="AJYL74WCXrSji0Hc39n0-2">
          <mxGeometry width="50" height="50" relative="1" as="geometry">
            <mxPoint x="580" y="470" as="sourcePoint" />
            <mxPoint x="630" y="420" as="targetPoint" />
          </mxGeometry>
        </mxCell>
      </root>
    </mxGraphModel>
  </diagram>
</mxfile>
